<svg width="34" height="37" viewBox="0 0 34 37" fill="none" xmlns="http://www.w3.org/2000/svg">
<path fill-rule="evenodd" clip-rule="evenodd" d="M3.39999 14.8C3.39999 14.3093 3.5791 13.8388 3.89791 13.4918C4.21672 13.1449 4.64913 12.95 5.09999 12.95H22.6236C23.0745 12.95 23.5069 13.1449 23.8257 13.4918C24.1445 13.8388 24.3236 14.3093 24.3236 14.8C24.3236 15.2906 24.1445 15.7612 23.8257 16.1081C23.5069 16.4551 23.0745 16.65 22.6236 16.65H5.09999C4.64913 16.65 4.21672 16.4551 3.89791 16.1081C3.5791 15.7612 3.39999 15.2906 3.39999 14.8ZM3.39999 7.39999C3.39999 6.90934 3.5791 6.43878 3.89791 6.09184C4.21672 5.7449 4.64913 5.54999 5.09999 5.54999H28.9C29.3509 5.54999 29.7833 5.7449 30.1021 6.09184C30.4209 6.43878 30.6 6.90934 30.6 7.39999C30.6 7.89064 30.4209 8.36119 30.1021 8.70814C29.7833 9.05508 29.3509 9.24999 28.9 9.24999H5.09999C4.64913 9.24999 4.21672 9.05508 3.89791 8.70814C3.5791 8.36119 3.39999 7.89064 3.39999 7.39999ZM3.39999 22.2C3.39999 21.7093 3.5791 21.2388 3.89791 20.8918C4.21672 20.5449 4.64913 20.35 5.09999 20.35H28.9C29.3509 20.35 29.7833 20.5449 30.1021 20.8918C30.4209 21.2388 30.6 21.7093 30.6 22.2C30.6 22.6906 30.4209 23.1612 30.1021 23.5081C29.7833 23.8551 29.3509 24.05 28.9 24.05H5.09999C4.64913 24.05 4.21672 23.8551 3.89791 23.5081C3.5791 23.1612 3.39999 22.6906 3.39999 22.2ZM3.39999 29.6C3.39999 29.1093 3.5791 28.6388 3.89791 28.2918C4.21672 27.9449 4.64913 27.75 5.09999 27.75H22.6236C23.0745 27.75 23.5069 27.9449 23.8257 28.2918C24.1445 28.6388 24.3236 29.1093 24.3236 29.6C24.3236 30.0906 24.1445 30.5612 23.8257 30.9081C23.5069 31.2551 23.0745 31.45 22.6236 31.45H5.09999C4.64913 31.45 4.21672 31.2551 3.89791 30.9081C3.5791 30.5612 3.39999 30.0906 3.39999 29.6Z" fill="#090A0A"/>
</svg>
