<svg width="36" height="36" viewBox="0 0 36 36" fill="none" xmlns="http://www.w3.org/2000/svg">
<path d="M30 30L23.925 23.925M23.925 23.925C24.9001 22.9499 25.6736 21.7924 26.2013 20.5184C26.729 19.2444 27.0006 17.8789 27.0006 16.5C27.0006 15.121 26.729 13.7556 26.2013 12.4816C25.6736 11.2076 24.9001 10.0501 23.925 9.07499C22.95 8.09992 21.7924 7.32646 20.5184 6.79876C19.2444 6.27105 17.879 5.99945 16.5 5.99945C15.1211 5.99945 13.7556 6.27105 12.4817 6.79876C11.2077 7.32646 10.0501 8.09992 9.07505 9.07499C7.10582 11.0442 5.99951 13.7151 5.99951 16.5C5.99951 19.2849 7.10582 21.9558 9.07505 23.925C11.0443 25.8942 13.7151 27.0005 16.5 27.0005C19.285 27.0005 21.9558 25.8942 23.925 23.925Z" stroke="#F24E1E" stroke-width="1.66667" stroke-linecap="round" stroke-linejoin="round"/>
</svg>
