<svg width="20" height="20" viewBox="0 0 20 20" fill="none" xmlns="http://www.w3.org/2000/svg">
<path d="M18.3333 6.80168V6.86251C18.3333 7.57918 18.3333 7.93835 18.1608 8.23168C17.9883 8.52501 17.6741 8.69918 17.0475 9.04835L16.3866 9.41501C16.8416 7.87501 16.9941 6.22001 17.05 4.80501L17.0583 4.62085L17.06 4.57751C17.6025 4.76585 17.9075 4.90668 18.0975 5.17001C18.3333 5.49751 18.3333 5.93251 18.3333 6.80168ZM1.66663 6.80168V6.86251C1.66663 7.57918 1.66663 7.93835 1.83913 8.23168C2.01163 8.52501 2.32579 8.69918 2.95246 9.04835L3.61413 9.41501C3.15829 7.87501 3.00579 6.22001 2.94996 4.80501L2.94163 4.62085L2.94079 4.57751C2.39746 4.76585 2.09246 4.90668 1.90246 5.17001C1.66663 5.49751 1.66663 5.93335 1.66663 6.80168Z" fill="#F24E1E"/>
<path fill-rule="evenodd" clip-rule="evenodd" d="M10 1.66667C11.4867 1.66667 12.7109 1.7975 13.6475 1.95584C14.5967 2.11584 15.0709 2.19584 15.4675 2.68417C15.8642 3.1725 15.8425 3.7 15.8009 4.755C15.6575 8.37917 14.8759 12.905 10.625 13.305V16.25H11.8167C12.0093 16.2501 12.1959 16.3169 12.3447 16.4391C12.4936 16.5612 12.5956 16.7312 12.6334 16.92L12.7917 17.7083H15C15.1658 17.7083 15.3247 17.7742 15.442 17.8914C15.5592 18.0086 15.625 18.1676 15.625 18.3333C15.625 18.4991 15.5592 18.6581 15.442 18.7753C15.3247 18.8925 15.1658 18.9583 15 18.9583H5.00002C4.83426 18.9583 4.67529 18.8925 4.55808 18.7753C4.44087 18.6581 4.37502 18.4991 4.37502 18.3333C4.37502 18.1676 4.44087 18.0086 4.55808 17.8914C4.67529 17.7742 4.83426 17.7083 5.00002 17.7083H7.20835L7.36668 16.92C7.40443 16.7312 7.50641 16.5612 7.6553 16.4391C7.80418 16.3169 7.99077 16.2501 8.18335 16.25H9.37502V13.305C5.12502 12.905 4.34335 8.37834 4.20002 4.755C4.15752 3.7 4.13668 3.17167 4.53335 2.68417C4.92918 2.19584 5.40335 2.11584 6.35252 1.95584C7.5582 1.75823 8.77826 1.66151 10 1.66667ZM10.7934 5.16584L10.7117 5.01917C10.395 4.45 10.2367 4.16667 10 4.16667C9.76335 4.16667 9.60502 4.45 9.28835 5.01917L9.20668 5.16584C9.11668 5.3275 9.07168 5.4075 9.00168 5.46084C8.93085 5.51417 8.84335 5.53417 8.66835 5.57334L8.51002 5.61C7.89502 5.74917 7.58752 5.81834 7.51418 6.05334C7.44085 6.28917 7.65085 6.53417 8.07002 7.02417L8.17835 7.15084C8.29752 7.29 8.35752 7.35917 8.38418 7.44584C8.41085 7.5325 8.40168 7.625 8.38418 7.81084L8.36752 7.98C8.30418 8.63417 8.27252 8.96167 8.46335 9.10667C8.65502 9.25167 8.94335 9.11917 9.51918 8.85417L9.66752 8.78584C9.83168 8.71084 9.91335 8.67334 10 8.67334C10.0867 8.67334 10.1684 8.71084 10.3325 8.78584L10.4809 8.85417C11.0567 9.12 11.345 9.25167 11.5367 9.10667C11.7284 8.96167 11.6959 8.63417 11.6325 7.98L11.6159 7.81084C11.5984 7.625 11.5892 7.5325 11.6159 7.44584C11.6425 7.36 11.7025 7.29 11.8217 7.15084L11.93 7.02417C12.3492 6.53417 12.5592 6.28917 12.4859 6.05334C12.4125 5.81834 12.105 5.74917 11.49 5.61L11.3317 5.57334C11.1567 5.53417 11.0692 5.515 10.9984 5.46084C10.9284 5.4075 10.8834 5.3275 10.7934 5.16584Z" fill="#F24E1E"/>
</svg>
