<svg width="20" height="20" viewBox="0 0 20 20" fill="none" xmlns="http://www.w3.org/2000/svg">
<path d="M16.6667 14.1667C17.1087 14.1667 17.5326 13.9911 17.8452 13.6785C18.1577 13.3659 18.3333 12.942 18.3333 12.5V3.33332C18.3333 2.8913 18.1577 2.46737 17.8452 2.15481C17.5326 1.84225 17.1087 1.66666 16.6667 1.66666H7.88333C8.175 2.17499 8.33333 2.74999 8.33333 3.33332H16.6667V12.5H9.16667V14.1667M12.5 5.83332V7.49999H7.5V18.3333H5.83333V13.3333H4.16667V18.3333H2.5V11.6667H1.25V7.49999C1.25 7.05796 1.42559 6.63404 1.73816 6.32148C2.05072 6.00892 2.47464 5.83332 2.91667 5.83332H12.5ZM6.66667 3.33332C6.66667 3.77535 6.49107 4.19927 6.17851 4.51183C5.86595 4.8244 5.44203 4.99999 5 4.99999C4.55797 4.99999 4.13405 4.8244 3.82149 4.51183C3.50893 4.19927 3.33333 3.77535 3.33333 3.33332C3.33333 2.8913 3.50893 2.46737 3.82149 2.15481C4.13405 1.84225 4.55797 1.66666 5 1.66666C5.44203 1.66666 5.86595 1.84225 6.17851 2.15481C6.49107 2.46737 6.66667 2.8913 6.66667 3.33332Z" fill="#F24E1E"/>
</svg>
